<?xml version="1.0" encoding="utf-8"?>
<!-- Generator: Adobe Illustrator 16.0.0, SVG Export Plug-In . SVG Version: 6.00 Build 0)  -->
<!DOCTYPE svg PUBLIC "-//W3C//DTD SVG 1.1//EN" "http://www.w3.org/Graphics/SVG/1.1/DTD/svg11.dtd">
<svg version="1.1" id="Ebene_1" xmlns="http://www.w3.org/2000/svg" xmlns:xlink="http://www.w3.org/1999/xlink" x="0px" y="0px"
	 width="1224.443px" height="448.516px" viewBox="0 0 1224.443 448.516" enable-background="new 0 0 1224.443 448.516"
	 xml:space="preserve">
<path d="M75.056,281.395H3.111C1.4,281.395,0,282.792,0,284.51v89.113c0,1.709,1.4,3.115,3.111,3.115h23.012
	c1.709,0,3.112-1.406,3.112-3.115v-18.535c0-1.699,1.396-3.111,3.105-3.111h42.848c9.086,0,11.318,10.265,11.318,10.265
	c0.366,1.678,0.662,4.44,0.662,6.149v5.232c0,1.709,1.401,3.115,3.112,3.115h23.013c1.712,0,3.112-1.406,3.112-3.115v-13.088
	c0-15.664-15.936-21.188-15.936-21.33c13.433-3.158,15.889-20.357,15.889-20.357c0.242-1.695,0.438-5.236,0.438-6.947
	C116.799,287.346,92.887,281.395,75.056,281.395 M88.359,318.271c0,6.842-5.795,10.011-13.91,10.011H32.342
	c-1.709,0-3.105-1.406-3.105-3.115v-16.959c0-1.713,1.396-3.104,3.105-3.104h42.584c11.134,0,13.435,4.229,13.435,11.381
	L88.359,318.271L88.359,318.271z"/>
<path d="M155.226,281.395h-23.014c-1.713,0-3.107,1.398-3.107,3.117v89.111c0,1.709,1.396,3.115,3.107,3.115h23.014
	c1.714,0,3.111-1.406,3.111-3.115v-89.111C158.338,282.793,156.939,281.395,155.226,281.395"/>
<path d="M370.658,353.825h-61.729c-2.011,0-2.816-1.732-1.107-2.938c15.482-10.935,61.842-44.759,61.842-44.759
	c1.389-0.998,2.523-3.217,2.523-4.926v-16.69c0-1.718-1.401-3.117-3.113-3.117H276.47h-10.862h-94.324
	c-1.709,0-3.104,1.399-3.104,3.117v17.478c0,1.714,1.395,3.114,3.104,3.114h34.867c1.71,0,3.108,1.393,3.108,3.104v65.418
	c0,1.709,1.399,3.115,3.11,3.115h23.014c1.715,0,3.111-1.406,3.111-3.115v-65.418c0-1.713,1.397-3.104,3.109-3.104
	c0,0,73.689,0.011,79.294,0.011c3.606-0.134,4.633,2.034,1.308,4.438c-14.729,10.652-44.151,31.58-59.03,42.451
	c-1.379,1.011-2.523,3.222-2.523,4.927v16.694c0,1.709,1.398,3.114,3.111,3.114h106.896c1.709,0,3.107-1.405,3.107-3.114V356.93
	C373.765,355.225,372.367,353.825,370.658,353.825"/>
<path d="M800.328,281.395h-23.012c-1.709,0-3.111,1.398-3.111,3.117v63.043c0,1.709-1.134,2.012-2.192,0.674l-51.045-64.389
	c-1.065-1.354-3.338-2.445-5.044-2.445h-39.077c-1.714,0-3.112,1.398-3.112,3.117v72.82l-40.245-73.217
	c-0.818-1.488-2.894-2.723-4.601-2.723h-31.841c-1.706,0-3.775,1.237-4.594,2.737l-42.479,78.474V284.51
	c0-1.717-1.399-3.117-3.116-3.117H523.85c-1.711,0-3.114,1.4-3.114,3.117v27.752c0,1.709-1.396,3.109-3.106,3.109h-55.405
	c-1.711,0-3.114-1.4-3.114-3.109V284.51c0-1.717-1.398-3.117-3.104-3.117h-23.019c-1.705,0-3.101,1.4-3.101,3.117v89.113
	c0,1.709,1.396,3.115,3.101,3.115h23.019c1.706,0,3.104-1.406,3.104-3.115v-29.857c0-1.713,1.403-3.113,3.114-3.113h55.405
	c1.713,0,3.106,1.4,3.106,3.113v29.857c0,1.709,1.403,3.115,3.114,3.115h21.58h1.429h25.004c1.711,0,3.743-1.256,4.519-2.777
	l5.742-11.311c0.779-1.523,2.809-2.771,4.518-2.771h53.04c1.709,0,3.772,1.229,4.586,2.736l6.135,11.381
	c0.813,1.5,2.873,2.739,4.59,2.739h21.854h4.448h18.561c1.712,0,3.112-1.405,3.112-3.114v-63.045c0-1.711,1.132-2.013,2.194-0.672
	l51.047,64.389c1.066,1.347,3.338,2.442,5.045,2.442h39.074c1.709,0,3.107-1.405,3.107-3.114V284.51
	C803.436,282.793,802.037,281.395,800.328,281.395 M628.749,339.336h-31.175c-1.711,0-2.469-1.246-1.687-2.764l15.591-30.289
	c0.777-1.516,2.08-1.533,2.877-0.01l16.053,30.315C631.208,338.102,630.465,339.336,628.749,339.336"/>
<path d="M876.713,317.477c-5.008,0-16.948,0.004-20.637,0.004c-8.649,0-14.26-1.293-14.26-7.729c0-5.14,5.108-8.069,14.17-8.069
	h29.294c11.831,0,13.139,4.549,13.962,6.771c0.602,1.605,2.6,3.098,5.014,3.098h21.362c1.712,0,3.109-1.367,3.109-3.021
	c0-16.725-15.188-28.184-39.981-28.184h-37.71c-29.769,0-38.445,17.44-38.445,30.547c0,15.258,10.188,28.711,40.067,28.711
	c8.099,0,29.27-0.08,34.396-0.08c13.475,0,15.587,3.332,15.587,8.348c0,5.027-2.312,8.584-15.607,8.584h-32.71
	c-8.422,0-11.521-8.027-11.521-8.027c-0.609-1.594-2.516-2.904-4.227-2.904h-23.02c-1.707,0-3.106,1.402-3.106,3.111v0.369
	c0,9.037,9.415,28.787,40.382,28.787h32.305c35.854,0,47.544-10.604,47.544-29.895C932.681,325.243,916.467,317.477,876.713,317.477
	"/>
<path d="M957.689,0.919c-2.532-1.23-6.652-1.226-9.176,0.014l-59.469,38.268c-3.51,2.226-4.535,5.123-4.535,7.923v17.352
	c0,2.819,2.225,4.384,4.582,2.862c15.417-9.957,44.623-28.644,59.503-38.184c3.626-2.324,5.358-2.475,9.169-0.023
	c65.322,42.04,65.303,42.028,262.168,168.442c2.301,1.471,4.512,0.193,4.512-2.617v-18.311c0-2.81-2.061-6.105-4.587-7.336
	L957.689,0.919z"/>
<path fill="#DB002D" d="M1224.483,231.206c0-3.36-1.876-5.123-4.224-6.64c-22.129-14.283-95.449-61.353-95.449-61.353h-46.44
	v-22.227c0-2.81-0.257-7.524-5.104-10.735c-7.793-5.158-23.459-15.237-31.328-20.244c-6.711-4.272-11.541,1.911-11.541,7.142v19.804
	c0,2.81-2.287,5.104-5.099,5.104h-87.925c-2.809,0-5.11-2.294-5.104-5.104c0.043-17.784,0.038-55.005,0.038-55.005
	c0-7.644-5.804-11.185-11.126-7.821c-6.563,4.148-23.083,14.822-30.822,19.789c-4.132,2.652-5.914,6.744-5.914,9.554l-0.144,78.453
	c0,2.807,0.396,7.447,5.104,10.457c8.807,5.631,26.204,16.796,35.211,22.632c5.271,3.416,7.651-0.104,7.651-4.125v-22.246
	c0-2.805,2.297-5.101,5.104-5.101h88.02c2.809,0,5.104,2.296,5.104,5.101l0.059,87.182c0,4.727,1.119,6.821,4.152,9.854
	l35.744,22.896c5.934,3.809,7.933,0.829,7.933-2.3v-19.838c0-2.809,2.553-5.106,5.37-5.106h77.769
	c14.912,0,14.987,5.215,14.987,12.633c0,5.455,0.175,66.935,0.175,69.738v8.409c0,2.81,1.429,5.132,5.11,7.947l32.523,20.82
	c6.94,4.223,10.33,1.299,10.33-1.51V295.374c0-25.713-26.133-34.763-26.133-35.006
	C1214.027,255.086,1224.483,247.698,1224.483,231.206 M1176.226,223.602c0,11.729-1.931,18.835-14.604,18.835h-78.146
	c-2.817,0-5.106-2.299-5.106-5.104c0,0,0.035-20.863,0-27.816c-0.014-2.804,2.289-5.106,5.106-5.106h78.146
	c12.674,0,14.604,7.897,14.604,19.256V223.602z"/>
<path display="none" fill="#FFFFFF" d="M197.329,449.083l-4.33-12.551h-15.941l-3.828,12.551h-4.521l13.935-43.056h6.214
	l13.996,43.056H197.329z M185.215,411.805l-6.65,20.646h13.243L185.215,411.805z"/>
<path display="none" fill="#FFFFFF" d="M235.299,449.083l-7.971-18.639h-11.924v18.639h-5.398v-43.056h16.131
	c3.515,0,6.903,0.438,9.792,2.636c2.887,2.196,4.579,5.774,4.579,9.414c0,5.086-3.012,9.666-8.031,11.047l8.473,19.959H235.299z
	 M225.508,426.049c2.89,0,5.272-0.188,7.407-2.385c1.506-1.506,2.196-3.578,2.196-5.646c0-2.514-0.942-4.582-3.013-5.965
	c-1.884-1.316-3.702-1.383-5.965-1.383h-10.729v15.379H225.508L225.508,426.049z"/>
<path display="none" fill="#FFFFFF" d="M281.678,435.651c-2.01,8.157-6.844,14.059-15.941,14.059
	c-12.427,0-17.512-11.986-17.512-22.594c0-11.107,5.461-21.716,17.949-21.716c8.66,0,13.745,5.836,15.504,13.744l-5.083,0.941
	c-1.509-5.459-4.205-10.168-10.607-10.168c-9.352,0-11.862,10.168-11.862,17.635c0,3.392,0.564,7.597,2.008,10.736
	c1.759,3.828,5.083,6.902,9.604,6.902c6.589,0,9.666-4.959,11.045-10.609L281.678,435.651z"/>
<polygon display="none" fill="#FFFFFF" points="316.698,449.083 316.698,428.622 296.74,428.622 296.74,449.083 291.342,449.083 
	291.342,406.027 296.74,406.027 296.74,423.915 316.698,423.915 316.698,406.027 322.095,406.027 322.095,449.083 "/>
<rect x="334.836" y="406.027" display="none" fill="#FFFFFF" width="5.396" height="43.056"/>
<polygon display="none" fill="#FFFFFF" points="360.441,449.083 360.441,410.734 348.202,410.734 348.202,406.027 378.077,406.027 
	378.077,410.734 365.839,410.734 365.839,449.083 "/>
<polygon display="none" fill="#FFFFFF" points="413.85,449.083 385.983,449.083 385.983,406.027 413.223,406.027 413.223,410.67 
	391.382,410.67 391.382,424.354 408.704,424.354 408.704,428.688 391.382,428.688 391.382,444.44 413.85,444.44 "/>
<polygon display="none" fill="#FFFFFF" points="451.006,449.083 438.201,425.36 428.348,437.596 428.348,449.083 422.949,449.083 
	422.949,406.027 428.348,406.027 428.348,431.006 447.74,406.027 453.577,406.027 441.969,421.09 456.969,449.083 "/>
<polygon display="none" fill="#FFFFFF" points="471.15,449.083 471.15,410.734 458.912,410.734 458.912,406.027 488.787,406.027 
	488.787,410.734 476.549,410.734 476.549,449.083 "/>
<path display="none" fill="#FFFFFF" d="M526.129,406.027v27.24c0,4.267-0.25,8.224-3.139,11.675
	c-2.888,3.45-7.218,4.768-11.609,4.768c-4.205,0-8.662-0.879-11.551-4.141c-3.139-3.517-3.389-7.847-3.389-12.302v-27.24h5.398
	v27.24c0,2.572,0.062,6.087,1.632,8.345c1.757,2.573,5.396,3.33,8.347,3.33c2.761,0,5.9-0.882,7.719-3.076
	c2.071-2.447,2.071-5.648,2.071-8.599v-27.24H526.129L526.129,406.027z"/>
<path display="none" fill="#FFFFFF" d="M563.658,449.083l-7.971-18.639h-11.924v18.639h-5.398v-43.056h16.129
	c3.518,0,6.905,0.438,9.793,2.636c2.889,2.196,4.581,5.774,4.581,9.414c0,5.086-3.013,9.666-8.032,11.047l8.474,19.959H563.658z
	 M553.867,426.049c2.891,0,5.272-0.188,7.407-2.385c1.507-1.506,2.197-3.578,2.197-5.646c0-2.514-0.943-4.582-3.014-5.965
	c-1.884-1.316-3.701-1.383-5.965-1.383h-10.729v15.379H553.867L553.867,426.049z"/>
<path display="none" fill="#FFFFFF" d="M635.015,448.831l-4.771,0.441c-3.514,0-4.77-1.636-7.094-3.828
	c-3.576,2.948-6.84,4.266-11.547,4.266c-3.264,0-7.029-1.004-9.602-2.949c-3.016-2.258-4.896-6.022-4.896-9.729
	c0-6.465,5.209-11.297,11.171-12.99c-1.818-2.574-4.143-6.401-4.143-9.543c0-5.459,4.08-9.099,9.604-9.099
	c5.584,0,10.041,3.263,10.041,9.099c0,5.774-4.33,8.789-9.037,11.047l9.037,13.621c3.199-3.891,5.021-8.662,5.838-13.621
	l4.646,0.943c-1.257,5.836-3.952,11.483-7.97,15.94c1.381,1.506,2.572,2.258,4.705,2.258l4.017-0.313L635.015,448.831
	L635.015,448.831z M610.351,427.243c-4.456,1.881-7.845,4.143-7.845,9.412c0,5.899,4.079,8.975,9.791,8.975
	c3.264,0,6.088-1.127,8.408-3.387L610.351,427.243z M612.549,422.471c3.075-1.818,7.152-3.449,7.152-7.719
	c0-3.201-2.635-5.396-5.836-5.396c-2.887,0-5.146,2.069-5.146,4.957c0,2.321,2.194,5.584,3.389,7.53L612.549,422.471z"/>
<path display="none" fill="#FFFFFF" d="M663.57,449.083v-43.056h14.436c3.702,0,7.405,0.438,10.354,2.888
	c2.824,2.387,4.396,6.401,4.396,10.043c0,3.326-1.382,6.777-3.769,9.102c-2.886,2.824-6.464,3.515-10.354,3.515h-9.666v17.512
	h-5.397V449.083z M678.068,427.116c2.574,0,4.832-0.25,6.841-2.197c1.569-1.568,2.388-3.764,2.388-5.961
	c0-2.571-0.943-5.146-3.016-6.776c-1.817-1.445-3.639-1.636-5.836-1.636h-9.479v16.57H678.068L678.068,427.116z"/>
<polygon display="none" fill="#FFFFFF" points="727.146,449.083 701.729,449.083 701.729,406.027 707.129,406.027 707.129,444.315 
	727.146,444.315 "/>
<path display="none" fill="#FFFFFF" d="M758.904,449.083l-4.33-12.551h-15.941l-3.828,12.551h-4.521l13.937-43.056h6.213
	l13.996,43.056H758.904z M746.79,411.805l-6.65,20.646h13.243L746.79,411.805z"/>
<polygon display="none" fill="#FFFFFF" points="798.068,449.083 776.162,411.551 776.162,449.083 771.643,449.083 771.643,406.027 
	778.424,406.027 798.82,441.114 798.82,406.027 803.342,406.027 803.342,449.083 "/>
<path display="none" fill="#FFFFFF" d="M844.445,406.027v27.24c0,4.267-0.25,8.224-3.138,11.675
	c-2.888,3.45-7.218,4.768-11.61,4.768c-4.205,0-8.662-0.879-11.55-4.141c-3.139-3.517-3.391-7.847-3.391-12.302v-27.24h5.397v27.24
	c0,2.572,0.063,6.087,1.631,8.345c1.76,2.573,5.398,3.33,8.352,3.33c2.76,0,5.896-0.882,7.717-3.076
	c2.071-2.447,2.071-5.648,2.071-8.599v-27.24H844.445L844.445,406.027z"/>
<polygon display="none" fill="#FFFFFF" points="883.172,449.083 861.264,411.551 861.264,449.083 856.746,449.083 856.746,406.027 
	863.525,406.027 883.924,441.114 883.924,406.027 888.441,406.027 888.441,449.083 "/>
<path display="none" fill="#FFFFFF" d="M932.436,449.397h-3.326l-1.443-5.337c-2.699,3.953-7.217,5.648-11.925,5.648
	c-5.773,0-9.979-2.072-13.433-6.652c-3.264-4.457-4.518-9.602-4.518-15.063c0-11.301,5.897-22.596,18.641-22.596
	c8.223,0,13.555,4.645,15.563,12.363l-5.082,1.256c-1.063-5.396-5.209-9.103-10.855-9.103c-9.729,0-12.428,9.918-12.428,17.824
	c0,3.705,0.689,8.098,2.445,11.424c1.947,3.639,5.775,6.152,10.041,6.152c6.655,0,10.797-4.521,10.797-11.048v-2.385H916.18v-4.52
	h16.256V449.397z"/>
<g>
	<path d="M30.597,448.516l-4.33-12.551H10.324l-3.828,12.551H1.977l13.933-43.055h6.214l13.996,43.055H30.597z M18.483,411.236
		l-6.652,20.648h13.243L18.483,411.236z"/>
	<path d="M69.567,448.516l-7.971-18.639H49.672v18.639h-5.396v-43.055h16.129c3.515,0,6.905,0.438,9.792,2.637
		c2.887,2.195,4.581,5.773,4.581,9.412c0,5.086-3.012,9.666-8.033,11.047l8.473,19.959H69.567L69.567,448.516z M59.776,425.483
		c2.888,0,5.271-0.188,7.407-2.388c1.506-1.506,2.194-3.576,2.194-5.646c0-2.513-0.94-4.582-3.013-5.964
		c-1.882-1.317-3.702-1.383-5.963-1.383h-10.73v15.38H59.776L59.776,425.483z"/>
	<path d="M117.946,435.084c-2.008,8.158-6.842,14.059-15.941,14.059c-12.427,0-17.512-11.983-17.512-22.594
		c0-11.107,5.461-21.715,17.951-21.715c8.66,0,13.745,5.836,15.502,13.744l-5.083,0.939c-1.507-5.459-4.205-10.166-10.607-10.166
		c-9.352,0-11.86,10.166-11.86,17.635c0,3.391,0.563,7.596,2.008,10.733c1.757,3.828,5.083,6.902,9.603,6.902
		c6.591,0,9.666-4.957,11.045-10.607L117.946,435.084z"/>
	<polygon points="154.966,448.516 154.966,428.055 135.008,428.055 135.008,448.516 129.61,448.516 129.61,405.461 135.008,405.461 
		135.008,423.348 154.966,423.348 154.966,405.461 160.363,405.461 160.363,448.516 	"/>
	<rect x="176.102" y="405.461" width="5.396" height="43.055"/>
	<polygon points="202.709,448.516 202.709,410.168 190.47,410.168 190.47,405.461 220.345,405.461 220.345,410.168 208.105,410.168 
		208.105,448.516 	"/>
	<polygon points="257.118,448.516 229.251,448.516 229.251,405.461 256.491,405.461 256.491,410.104 234.648,410.104 
		234.648,423.788 251.972,423.788 251.972,428.12 234.648,428.12 234.648,443.874 257.118,443.874 	"/>
	<polygon points="296.272,448.516 283.469,424.793 273.616,437.03 273.616,448.516 268.217,448.516 268.217,405.461 
		273.616,405.461 273.616,430.44 293.008,405.461 298.845,405.461 287.235,420.523 302.235,448.516 	"/>
	<polygon points="318.42,448.516 318.42,410.168 306.18,410.168 306.18,405.461 336.055,405.461 336.055,410.168 323.815,410.168 
		323.815,448.516 	"/>
	<path d="M375.395,405.461v27.24c0,4.266-0.25,8.223-3.137,11.674c-2.89,3.451-7.22,4.768-11.611,4.768
		c-4.205,0-8.662-0.879-11.549-4.141c-3.139-3.516-3.389-7.846-3.389-12.301v-27.24h5.396v27.24c0,2.572,0.063,6.086,1.632,8.344
		c1.757,2.574,5.398,3.33,8.349,3.33c2.761,0,5.898-0.881,7.719-3.076c2.07-2.447,2.07-5.647,2.07-8.598v-27.24H375.395
		L375.395,405.461z"/>
	<path d="M413.927,448.516l-7.973-18.639h-11.924v18.639h-5.396v-43.055h16.129c3.516,0,6.903,0.438,9.793,2.637
		c2.887,2.195,4.581,5.773,4.581,9.412c0,5.086-3.015,9.666-8.034,11.047l8.474,19.959H413.927L413.927,448.516z M404.135,425.483
		c2.889,0,5.271-0.188,7.407-2.388c1.507-1.506,2.195-3.576,2.195-5.646c0-2.513-0.941-4.582-3.014-5.964
		c-1.882-1.317-3.701-1.383-5.963-1.383H394.03v15.38H404.135L404.135,425.483z"/>
	<path d="M487.283,448.264l-4.77,0.441c-3.516,0-4.771-1.635-7.094-3.828c-3.575,2.949-6.841,4.266-11.548,4.266
		c-3.264,0-7.028-1.004-9.602-2.946c-3.014-2.258-4.896-6.025-4.896-9.73c0-6.465,5.21-11.297,11.172-12.99
		c-1.82-2.573-4.144-6.401-4.144-9.542c0-5.459,4.08-9.099,9.604-9.099c5.584,0,10.042,3.263,10.042,9.099
		c0,5.774-4.33,8.788-9.038,11.049l9.038,13.618c3.197-3.891,5.021-8.659,5.837-13.618l4.645,0.94
		c-1.258,5.836-3.953,11.484-7.97,15.941c1.381,1.506,2.574,2.258,4.705,2.258l4.018-0.313V448.264L487.283,448.264z
		 M462.619,426.676c-4.456,1.881-7.845,4.144-7.845,9.412c0,5.9,4.079,8.978,9.791,8.978c3.264,0,6.088-1.13,8.409-3.39
		L462.619,426.676z M464.815,421.905c3.077-1.82,7.154-3.451,7.154-7.72c0-3.201-2.634-5.396-5.836-5.396
		c-2.889,0-5.146,2.068-5.146,4.957c0,2.32,2.196,5.584,3.391,7.531L464.815,421.905z"/>
	<path d="M517.84,448.516v-43.055h14.434c3.705,0,7.408,0.438,10.355,2.889c2.822,2.385,4.395,6.4,4.395,10.041
		c0,3.326-1.381,6.777-3.766,9.103c-2.889,2.824-6.466,3.512-10.355,3.512h-9.666v17.514h-5.396L517.84,448.516L517.84,448.516z
		 M532.338,426.549c2.572,0,4.831-0.25,6.842-2.197c1.566-1.565,2.385-3.764,2.385-5.961c0-2.57-0.943-5.146-3.014-6.776
		c-1.818-1.445-3.641-1.634-5.836-1.634h-9.479v16.568H532.338z"/>
	<polygon points="583.414,448.516 557.996,448.516 557.996,405.461 563.395,405.461 563.395,443.749 583.414,443.749 	"/>
	<path d="M617.174,448.516l-4.33-12.551H596.9l-3.828,12.551h-4.518l13.934-43.055h6.213l13.996,43.055H617.174z M605.059,411.236
		l-6.652,20.648h13.242L605.059,411.236z"/>
	<polygon points="658.338,448.516 636.43,410.984 636.43,448.516 631.91,448.516 631.91,405.461 638.689,405.461 659.09,440.547 
		659.09,405.461 663.607,405.461 663.607,448.516 	"/>
	<path d="M705.715,405.461v27.24c0,4.266-0.25,8.223-3.139,11.674s-7.219,4.768-11.609,4.768c-4.205,0-8.662-0.879-11.55-4.141
		c-3.14-3.516-3.392-7.846-3.392-12.301v-27.24h5.398v27.24c0,2.572,0.063,6.086,1.631,8.344c1.758,2.574,5.396,3.33,8.35,3.33
		c2.76,0,5.898-0.881,7.717-3.076c2.072-2.447,2.072-5.647,2.072-8.598v-27.24H705.715L705.715,405.461z"/>
	<polygon points="744.438,448.516 722.531,410.984 722.531,448.516 718.014,448.516 718.014,405.461 724.795,405.461 
		745.189,440.547 745.189,405.461 749.711,405.461 749.711,448.516 	"/>
	<path d="M793.703,448.831h-3.324l-1.443-5.336c-2.701,3.953-7.217,5.646-11.924,5.646c-5.775,0-9.979-2.069-13.436-6.649
		c-3.264-4.457-4.518-9.603-4.518-15.063c0-11.299,5.898-22.596,18.641-22.596c8.225,0,13.557,4.645,15.563,12.363l-5.082,1.258
		c-1.064-5.398-5.209-9.104-10.857-9.104c-9.729,0-12.428,9.918-12.428,17.823c0,3.705,0.691,8.099,2.447,11.424
		c1.947,3.642,5.773,6.152,10.041,6.152c6.656,0,10.797-4.521,10.797-11.047v-2.385h-10.732v-4.521h16.256L793.703,448.831
		L793.703,448.831z"/>
	<path d="M801.094,437.868l4.813-1.094c1.938,5.813,6.136,8.719,12.595,8.719c3.375,0,5.916-0.717,7.625-2.148
		c1.706-1.432,2.563-3.35,2.563-5.754c0-1.817-0.65-3.281-1.953-4.391c-1.301-1.107-2.805-1.871-4.512-2.289l-8.535-2.105
		c-2.209-0.563-4.016-1.246-5.422-2.049c-1.406-0.805-2.602-2.041-3.578-3.709c-0.98-1.67-1.469-3.577-1.469-5.728
		c0-3.567,1.344-6.409,4.029-8.526c2.688-2.119,6.137-3.178,10.346-3.178c7.75,0,12.844,3.512,15.279,10.53l-4.844,1.438
		c-0.563-2.5-1.887-4.392-3.969-5.672c-2.084-1.281-4.303-1.922-6.656-1.922c-2.334,0-4.412,0.616-6.232,1.854
		c-1.824,1.234-2.734,2.982-2.734,5.242c0,3.16,2.311,5.295,6.93,6.404l7.979,1.871c7.291,1.75,10.938,5.678,10.938,11.782
		c0,3.688-1.371,6.757-4.107,9.205c-2.74,2.447-6.602,3.672-11.578,3.672C809.76,450.024,803.926,445.971,801.094,437.868z"/>
	<path d="M895.943,449.149h-5.457l-4.289-12.472h-15.828l-3.814,12.472h-4.469l13.859-42.656h6.045L895.943,449.149z
		 M885.059,432.68l-6.607-20.5l-6.598,20.5H885.059z"/>
	<path d="M932.436,427.649v22.094h-3.266l-1.471-5.344c-2.627,3.75-6.533,5.625-11.725,5.625c-5.629,0-10.006-2.115-13.133-6.351
		c-3.127-4.231-4.689-9.371-4.689-15.418c0-6.463,1.656-11.852,4.969-16.166c3.313-4.314,7.813-6.475,13.5-6.475
		c7.854,0,12.979,4.125,15.375,12.375l-5.063,1.219c-0.73-3.166-2.094-5.469-4.094-6.905c-2-1.436-4.188-2.155-6.563-2.155
		c-4.209,0-7.313,1.699-9.313,5.099c-2,3.397-3,7.664-3,12.793c0,5.524,1.119,9.848,3.357,12.965s5.285,4.676,9.143,4.676
		c3,0,5.504-0.998,7.516-2.989c2.01-1.994,3.016-4.746,3.016-8.255c0-0.647-0.021-1.42-0.063-2.317H916.37v-4.469L932.436,427.649
		L932.436,427.649z"/>
</g>
</svg>
